<?xml version="1.0" encoding="utf-8"?>
<!-- Generator: Adobe Illustrator 18.1.0, SVG Export Plug-In . SVG Version: 6.00 Build 0)  -->
<svg version="1.1" id="Layer_1" xmlns="http://www.w3.org/2000/svg" xmlns:xlink="http://www.w3.org/1999/xlink" x="0px" y="0px"
	 viewBox="0 0 100 100" enable-background="new 0 0 100 100" xml:space="preserve">
<g>
	<g id="Circle_Shadow_46_">
		<g>
			<circle fill="#4B2D87" cx="50" cy="51" r="31"/>
		</g>
	</g>
	<g id="Circle_48_">
		<g>
			<circle fill="#692C90" cx="50" cy="49" r="31"/>
		</g>
	</g>
	<path id="Long_Shadow_46_" opacity="0.15" fill="#010101" d="M80.8,52.4L67.7,39.3L60.9,43l-5.5-5.5l-1.8,7.7H39.8l-7.3,15.1
		l19.5,19.5C67.1,78.9,79.2,67.2,80.8,52.4z"/>
	<g id="Camera_2_">
		<g>
			<path fill="#FFFDF3" d="M67,39c-0.1,0-0.3,0-0.4,0.1l0,0l-8.6,4v11.9l8.6,4l0,0C66.7,59,66.9,59,67,59c0.6,0,1-0.4,1-1V40
				C68,39.4,67.6,39,67,39z M54,37H34c-1.1,0-2,0.9-2,2v20c0,1.1,0.9,2,2,2h20c1.1,0,2-0.9,2-2V39C56,37.9,55.1,37,54,37z"/>
		</g>
	</g>
	<g id="Greenv">
		<g>
			<path fill="#C5D92D" d="M50,41c-1.1,0-2,0.9-2,2c0,1.1,0.9,2,2,2s2-0.9,2-2C52,41.9,51.1,41,50,41z M45,42c-0.6,0-1,0.4-1,1
				c0,0.6,0.4,1,1,1s1-0.4,1-1C46,42.4,45.6,42,45,42z"/>
		</g>
	</g>
	<g id="Line_4_" opacity="0.149">
		<g>
			<rect x="32" y="55" fill="#364F5F" width="24" height="2"/>
		</g>
	</g>
</g>
</svg>
